<mxfile host="app.diagrams.net" modified="2024-07-03T14:43:50.188Z" agent="Mozilla/5.0 (Windows NT 10.0; Win64; x64) AppleWebKit/537.36 (KHTML, like Gecko) Chrome/126.0.0.0 Safari/537.36" version="24.6.4" etag="qpxYoa3crAcH5Eisqte1" type="github">
  <diagram name="Page-1" id="dMfrpvNQDvl9goevBQ8K">
    <mxGraphModel>
      <root>
        <mxCell id="0" />
        <mxCell id="1" parent="0" />
      </root>
    </mxGraphModel>
  </diagram>
</mxfile>
